<svg xmlns="http://www.w3.org/2000/svg" viewBox="0 0 96 96"><ellipse cx="48" cy="84" rx="34" ry="5" fill="#591823" opacity=".1"/><ellipse cx="48" cy="49" rx="34" ry="19" fill="#f5e9d3" stroke="#b38b43" stroke-width="2"/><path d="M14 49q5 31 34 31t34-31" fill="#762b3a" stroke="#b38b43" stroke-width="2"/><ellipse cx="48" cy="49" rx="27" ry="13" fill="#c48a47"/><path d="m29 48 9-6 8 8-10 6m14-14 12 1-3 9-10-2" fill="#f2d39a"/><circle cx="65" cy="48" r="4" fill="#578049"/><circle cx="46" cy="53" r="3" fill="#578049"/><path d="M34 30q-8-8 0-17m14 16q-8-8 0-17m14 18q-8-8 0-17" fill="none" stroke="#b38b43" stroke-width="3" stroke-linecap="round"/></svg>